<?xml version="1.0" encoding="iso-8859-1"?>
<!-- Uploaded to: SVG Repo, www.svgrepo.com, Generator: SVG Repo Mixer Tools -->
<svg version="1.1" id="Layer_1" xmlns="http://www.w3.org/2000/svg" xmlns:xlink="http://www.w3.org/1999/xlink" 
	 viewBox="0 0 512 512" xml:space="preserve">
<g>
	<polygon style="fill:#4DD0E2;" points="290.482,475.951 177.633,475.951 188.082,275.331 279.51,275.331 	"/>
	<rect x="188.082" y="220.996" style="fill:#4DD0E2;" width="91.429" height="26.122"/>
</g>
<g>
	<rect x="203.494" y="247.118" style="fill:#FFB64D;" width="60.604" height="28.212"/>
	<rect x="203.494" y="475.951" style="fill:#FFB64D;" width="60.604" height="28.212"/>
</g>
<g>
	<rect x="175.02" y="60.082" style="fill:#4DD0E2;" width="26.122" height="52.245"/>
	<rect x="201.143" y="28.735" style="fill:#4DD0E2;" width="26.122" height="83.592"/>
	<rect x="227.265" y="7.837" style="fill:#4DD0E2;" width="26.122" height="104.49"/>
	<rect x="253.388" y="39.184" style="fill:#4DD0E2;" width="26.122" height="73.143"/>
	<rect x="310.857" y="90.384" style="fill:#4DD0E2;" width="26.122" height="52.245"/>
	<polygon style="fill:#4DD0E2;" points="300.408,220.996 175.02,220.996 175.02,140.539 279.51,140.539 279.51,173.976 
		300.408,184.424 	"/>
</g>
<g>
	<circle style="fill:#FFFFFF;" cx="234.057" cy="324.963" r="18.808"/>
	<rect x="182.857" y="78.367" style="fill:#FFFFFF;" width="10.449" height="15.673"/>
	<rect x="235.102" y="52.245" style="fill:#FFFFFF;" width="10.449" height="15.673"/>
	<rect x="261.224" y="67.918" style="fill:#FFFFFF;" width="10.449" height="15.673"/>
	<rect x="208.98" y="62.694" style="fill:#FFFFFF;" width="10.449" height="15.673"/>
	<rect x="318.694" y="108.669" style="fill:#FFFFFF;" width="10.449" height="15.673"/>
</g>
<path d="M344.816,82.547H303.02v67.918h13.061v9.542l-16.914,15.035l-11.821-5.91v-36.43h-13.061v-12.539h13.061V31.347h-26.122V0
	h-41.796v20.898h-26.122v31.347h-26.122v67.918h13.061v12.539h-13.061v96.131h13.061v26.122h15.412v12.539h-15.014l-11.265,216.294
	h26.279V512h76.278v-28.212h26.824L286.93,267.494h-14.995v-12.539h15.412v-26.122h20.898v-40.889l23.51-20.898v-16.58h13.061
	V82.547z M258.612,132.702h-10.449v-12.539h10.449V132.702z M232.49,120.163v12.539h-10.449v-12.539H232.49z M271.673,104.49
	h-10.449V47.02h10.449V104.49z M245.551,15.673v88.816h-10.449V15.673H245.551z M219.429,36.571v67.918H208.98V36.571H219.429z
	 M182.857,67.918h10.449v36.571h-10.449V67.918z M195.918,120.163h10.449v12.539h-10.449V120.163z M256.261,496.327h-44.931v-12.539
	h44.931V496.327z M234.057,335.935c-6.05,0-10.971-4.921-10.971-10.971c0-6.05,4.921-10.971,10.971-10.971
	c6.05,0,10.971,4.921,10.971,10.971C245.029,331.013,240.107,335.935,234.057,335.935z M282.205,468.114h-40.311V350.431
	c10.879-3.354,18.808-13.502,18.808-25.467c0-14.691-11.953-26.645-26.645-26.645c-14.692,0-26.645,11.954-26.645,26.645
	c0,11.965,7.929,22.112,18.808,25.467v117.684h-40.333l9.633-184.947h76.57L282.205,468.114z M256.261,267.494h-44.931v-12.539
	h44.931V267.494z M271.673,239.282h-75.755v-10.449h75.755V239.282z M292.571,213.159H182.857v-64.784h88.816v30.444l20.898,10.448
	V213.159z M318.694,98.22h10.449v36.571h-10.449V98.22z"/>
</svg>